<mxfile host="app.diagrams.net" agent="Mozilla/5.0 (Windows NT 10.0; Win64; x64) AppleWebKit/537.36 (KHTML, like Gecko) Chrome/140.0.0.0 Safari/537.36" version="28.2.3">
  <diagram name="Página-1" id="OgKwsQ1bAtI0rJeDtGvx">
    <mxGraphModel grid="1" page="1" gridSize="10" guides="1" tooltips="1" connect="1" arrows="1" fold="1" pageScale="1" pageWidth="827" pageHeight="1169" math="0" shadow="0">
      <root>
        <mxCell id="0" />
        <mxCell id="1" parent="0" />
        <mxCell id="ot6ux1eSbc0KrhvYerLD-1" value="&lt;font style=&quot;font-size: 24px;&quot;&gt;Loja Online&lt;/font&gt;" style="text;html=1;align=center;verticalAlign=middle;resizable=0;points=[];autosize=1;fillColor=#f5f5f5;gradientColor=#b3b3b3;strokeColor=#666666;" vertex="1" parent="1">
          <mxGeometry x="290" y="3" width="140" height="40" as="geometry" />
        </mxCell>
        <mxCell id="ot6ux1eSbc0KrhvYerLD-4" value="COMPRAS" style="whiteSpace=wrap;html=1;fillColor=#f8cecc;gradientColor=#ea6b66;strokeColor=#b85450;" vertex="1" parent="1">
          <mxGeometry x="76.96000000000001" y="230" width="120" height="60" as="geometry" />
        </mxCell>
        <mxCell id="ot6ux1eSbc0KrhvYerLD-5" style="edgeStyle=orthogonalEdgeStyle;rounded=0;orthogonalLoop=1;jettySize=auto;html=1;exitX=0.5;exitY=1;exitDx=0;exitDy=0;entryX=0.5;entryY=0;entryDx=0;entryDy=0;endArrow=none;endFill=0;" edge="1" parent="1" source="ot6ux1eSbc0KrhvYerLD-7" target="ot6ux1eSbc0KrhvYerLD-28">
          <mxGeometry relative="1" as="geometry" />
        </mxCell>
        <mxCell id="ot6ux1eSbc0KrhvYerLD-6" style="edgeStyle=orthogonalEdgeStyle;rounded=0;orthogonalLoop=1;jettySize=auto;html=1;exitX=0;exitY=0.5;exitDx=0;exitDy=0;endArrow=none;endFill=0;" edge="1" parent="1" source="ot6ux1eSbc0KrhvYerLD-7" target="ot6ux1eSbc0KrhvYerLD-34">
          <mxGeometry relative="1" as="geometry" />
        </mxCell>
        <mxCell id="ot6ux1eSbc0KrhvYerLD-7" value="PRODUTO" style="whiteSpace=wrap;html=1;fillColor=#f8cecc;strokeColor=#b85450;gradientColor=#ea6b66;" vertex="1" parent="1">
          <mxGeometry x="513.02" y="230" width="120" height="60" as="geometry" />
        </mxCell>
        <mxCell id="ot6ux1eSbc0KrhvYerLD-35" style="edgeStyle=orthogonalEdgeStyle;rounded=0;orthogonalLoop=1;jettySize=auto;html=1;exitX=0.5;exitY=1;exitDx=0;exitDy=0;entryX=0;entryY=0.5;entryDx=0;entryDy=0;endArrow=none;endFill=0;" edge="1" parent="1" source="ot6ux1eSbc0KrhvYerLD-11" target="ot6ux1eSbc0KrhvYerLD-4">
          <mxGeometry relative="1" as="geometry" />
        </mxCell>
        <mxCell id="ot6ux1eSbc0KrhvYerLD-11" value="Valor total" style="ellipse;whiteSpace=wrap;html=1;fillColor=#1ba1e2;strokeColor=#006EAF;fontColor=#ffffff;" vertex="1" parent="1">
          <mxGeometry x="-43.04" y="140" width="120" height="50" as="geometry" />
        </mxCell>
        <mxCell id="ot6ux1eSbc0KrhvYerLD-12" style="edgeStyle=orthogonalEdgeStyle;rounded=0;orthogonalLoop=1;jettySize=auto;html=1;exitX=0.5;exitY=1;exitDx=0;exitDy=0;endArrow=none;endFill=0;" edge="1" parent="1" source="ot6ux1eSbc0KrhvYerLD-13">
          <mxGeometry relative="1" as="geometry">
            <mxPoint x="136.96" y="230" as="targetPoint" />
          </mxGeometry>
        </mxCell>
        <mxCell id="ot6ux1eSbc0KrhvYerLD-13" value="Data" style="ellipse;whiteSpace=wrap;html=1;fillColor=#1ba1e2;strokeColor=#006EAF;fontColor=#ffffff;" vertex="1" parent="1">
          <mxGeometry x="106.96000000000001" y="80" width="120" height="50" as="geometry" />
        </mxCell>
        <mxCell id="ot6ux1eSbc0KrhvYerLD-14" style="edgeStyle=orthogonalEdgeStyle;rounded=0;orthogonalLoop=1;jettySize=auto;html=1;exitX=0.5;exitY=1;exitDx=0;exitDy=0;entryX=0.5;entryY=0;entryDx=0;entryDy=0;endArrow=none;endFill=0;" edge="1" parent="1" target="ot6ux1eSbc0KrhvYerLD-7">
          <mxGeometry relative="1" as="geometry">
            <mxPoint x="707.02" y="180" as="sourcePoint" />
          </mxGeometry>
        </mxCell>
        <mxCell id="ot6ux1eSbc0KrhvYerLD-15" value="Quantidade de estoque" style="ellipse;whiteSpace=wrap;html=1;fillColor=#1ba1e2;strokeColor=#006EAF;fontColor=#ffffff;" vertex="1" parent="1">
          <mxGeometry x="660" y="150" width="120" height="50" as="geometry" />
        </mxCell>
        <mxCell id="ot6ux1eSbc0KrhvYerLD-48" style="edgeStyle=orthogonalEdgeStyle;rounded=0;orthogonalLoop=1;jettySize=auto;html=1;exitX=0.5;exitY=1;exitDx=0;exitDy=0;entryX=0.5;entryY=0;entryDx=0;entryDy=0;endArrow=none;endFill=0;" edge="1" parent="1" source="ot6ux1eSbc0KrhvYerLD-17" target="ot6ux1eSbc0KrhvYerLD-7">
          <mxGeometry relative="1" as="geometry" />
        </mxCell>
        <mxCell id="ot6ux1eSbc0KrhvYerLD-17" value="Nome" style="ellipse;whiteSpace=wrap;html=1;fillColor=#1ba1e2;strokeColor=#006EAF;fontColor=#ffffff;" vertex="1" parent="1">
          <mxGeometry x="437.0199999999999" y="80" width="120" height="50" as="geometry" />
        </mxCell>
        <mxCell id="ot6ux1eSbc0KrhvYerLD-18" style="edgeStyle=orthogonalEdgeStyle;rounded=0;orthogonalLoop=1;jettySize=auto;html=1;exitX=0.5;exitY=1;exitDx=0;exitDy=0;endArrow=none;endFill=0;" edge="1" parent="1" source="ot6ux1eSbc0KrhvYerLD-19">
          <mxGeometry relative="1" as="geometry">
            <mxPoint x="573.0199999999998" y="229.9999999999999" as="targetPoint" />
          </mxGeometry>
        </mxCell>
        <mxCell id="ot6ux1eSbc0KrhvYerLD-19" value="Preço" style="ellipse;whiteSpace=wrap;html=1;fillColor=#1ba1e2;strokeColor=#006EAF;fontColor=#ffffff;" vertex="1" parent="1">
          <mxGeometry x="577.02" y="60" width="120" height="50" as="geometry" />
        </mxCell>
        <mxCell id="ot6ux1eSbc0KrhvYerLD-36" style="edgeStyle=orthogonalEdgeStyle;rounded=0;orthogonalLoop=1;jettySize=auto;html=1;exitX=0;exitY=0.5;exitDx=0;exitDy=0;entryX=0.5;entryY=1;entryDx=0;entryDy=0;endArrow=none;endFill=0;" edge="1" parent="1" source="ot6ux1eSbc0KrhvYerLD-20" target="ot6ux1eSbc0KrhvYerLD-30">
          <mxGeometry relative="1" as="geometry" />
        </mxCell>
        <mxCell id="ot6ux1eSbc0KrhvYerLD-20" value="CLIENTE" style="whiteSpace=wrap;html=1;fillColor=#f8cecc;strokeColor=#b85450;gradientColor=#ea6b66;" vertex="1" parent="1">
          <mxGeometry x="311.0199999999999" y="450" width="120" height="60" as="geometry" />
        </mxCell>
        <mxCell id="ot6ux1eSbc0KrhvYerLD-21" style="edgeStyle=orthogonalEdgeStyle;rounded=0;orthogonalLoop=1;jettySize=auto;html=1;exitX=0;exitY=0.5;exitDx=0;exitDy=0;entryX=1;entryY=0.5;entryDx=0;entryDy=0;endArrow=none;endFill=0;" edge="1" parent="1" source="ot6ux1eSbc0KrhvYerLD-22" target="ot6ux1eSbc0KrhvYerLD-20">
          <mxGeometry relative="1" as="geometry" />
        </mxCell>
        <mxCell id="ot6ux1eSbc0KrhvYerLD-22" value="Endereço" style="ellipse;whiteSpace=wrap;html=1;fillColor=#1ba1e2;strokeColor=#006EAF;fontColor=#ffffff;" vertex="1" parent="1">
          <mxGeometry x="477.0199999999999" y="550" width="120" height="50" as="geometry" />
        </mxCell>
        <mxCell id="ot6ux1eSbc0KrhvYerLD-23" style="edgeStyle=orthogonalEdgeStyle;rounded=0;orthogonalLoop=1;jettySize=auto;html=1;exitX=0.5;exitY=0;exitDx=0;exitDy=0;entryX=0.5;entryY=1;entryDx=0;entryDy=0;endArrow=none;endFill=0;" edge="1" parent="1" source="ot6ux1eSbc0KrhvYerLD-24" target="ot6ux1eSbc0KrhvYerLD-20">
          <mxGeometry relative="1" as="geometry" />
        </mxCell>
        <mxCell id="ot6ux1eSbc0KrhvYerLD-24" value="CPF" style="ellipse;whiteSpace=wrap;html=1;fillColor=#1ba1e2;strokeColor=#006EAF;fontColor=#ffffff;" vertex="1" parent="1">
          <mxGeometry x="311.0199999999999" y="600" width="120" height="50" as="geometry" />
        </mxCell>
        <mxCell id="ot6ux1eSbc0KrhvYerLD-25" style="edgeStyle=orthogonalEdgeStyle;rounded=0;orthogonalLoop=1;jettySize=auto;html=1;exitX=0.5;exitY=0;exitDx=0;exitDy=0;entryX=0.5;entryY=1;entryDx=0;entryDy=0;endArrow=none;endFill=0;" edge="1" parent="1" source="ot6ux1eSbc0KrhvYerLD-26" target="ot6ux1eSbc0KrhvYerLD-20">
          <mxGeometry relative="1" as="geometry" />
        </mxCell>
        <mxCell id="ot6ux1eSbc0KrhvYerLD-26" value="Nome" style="ellipse;whiteSpace=wrap;html=1;fillColor=#1ba1e2;strokeColor=#006EAF;fontColor=#ffffff;" vertex="1" parent="1">
          <mxGeometry x="147.01999999999995" y="570" width="120" height="50" as="geometry" />
        </mxCell>
        <mxCell id="ot6ux1eSbc0KrhvYerLD-27" style="edgeStyle=orthogonalEdgeStyle;rounded=0;orthogonalLoop=1;jettySize=auto;html=1;exitX=0.5;exitY=1;exitDx=0;exitDy=0;entryX=0.5;entryY=0;entryDx=0;entryDy=0;endArrow=none;endFill=0;" edge="1" parent="1" source="ot6ux1eSbc0KrhvYerLD-28" target="ot6ux1eSbc0KrhvYerLD-20">
          <mxGeometry relative="1" as="geometry" />
        </mxCell>
        <mxCell id="ot6ux1eSbc0KrhvYerLD-28" value="Possui" style="rhombus;whiteSpace=wrap;html=1;fillColor=#fa6800;strokeColor=#C73500;fontColor=#000000;" vertex="1" parent="1">
          <mxGeometry x="533.02" y="330" width="80" height="80" as="geometry" />
        </mxCell>
        <mxCell id="ot6ux1eSbc0KrhvYerLD-37" style="edgeStyle=orthogonalEdgeStyle;rounded=0;orthogonalLoop=1;jettySize=auto;html=1;exitX=0.5;exitY=0;exitDx=0;exitDy=0;entryX=0.5;entryY=1;entryDx=0;entryDy=0;endArrow=none;endFill=0;" edge="1" parent="1" source="ot6ux1eSbc0KrhvYerLD-30" target="ot6ux1eSbc0KrhvYerLD-4">
          <mxGeometry relative="1" as="geometry" />
        </mxCell>
        <mxCell id="ot6ux1eSbc0KrhvYerLD-30" value="Realiza" style="rhombus;whiteSpace=wrap;html=1;fillColor=#fa6800;strokeColor=#C73500;fontColor=#000000;" vertex="1" parent="1">
          <mxGeometry x="76.96000000000001" y="330" width="120" height="90" as="geometry" />
        </mxCell>
        <mxCell id="ot6ux1eSbc0KrhvYerLD-33" style="edgeStyle=orthogonalEdgeStyle;rounded=0;orthogonalLoop=1;jettySize=auto;html=1;exitX=0;exitY=0.5;exitDx=0;exitDy=0;entryX=1;entryY=0.5;entryDx=0;entryDy=0;endArrow=none;endFill=0;" edge="1" parent="1" source="ot6ux1eSbc0KrhvYerLD-34" target="ot6ux1eSbc0KrhvYerLD-4">
          <mxGeometry relative="1" as="geometry" />
        </mxCell>
        <mxCell id="ot6ux1eSbc0KrhvYerLD-34" value="Contem" style="rhombus;whiteSpace=wrap;html=1;fillColor=#fa6800;strokeColor=#C73500;fontColor=#000000;" vertex="1" parent="1">
          <mxGeometry x="306.96" y="220" width="80" height="80" as="geometry" />
        </mxCell>
        <mxCell id="ot6ux1eSbc0KrhvYerLD-42" value="1" style="text;html=1;align=center;verticalAlign=middle;resizable=0;points=[];autosize=1;strokeColor=none;fillColor=none;" vertex="1" parent="1">
          <mxGeometry x="281.02" y="450" width="30" height="30" as="geometry" />
        </mxCell>
        <mxCell id="ot6ux1eSbc0KrhvYerLD-43" value="N" style="text;html=1;align=center;verticalAlign=middle;resizable=0;points=[];autosize=1;strokeColor=none;fillColor=none;" vertex="1" parent="1">
          <mxGeometry x="160" y="290" width="30" height="30" as="geometry" />
        </mxCell>
        <mxCell id="ot6ux1eSbc0KrhvYerLD-44" value="1" style="text;html=1;align=center;verticalAlign=middle;resizable=0;points=[];autosize=1;strokeColor=none;fillColor=none;" vertex="1" parent="1">
          <mxGeometry x="195" y="228" width="30" height="30" as="geometry" />
        </mxCell>
        <mxCell id="ot6ux1eSbc0KrhvYerLD-45" value="N" style="text;html=1;align=center;verticalAlign=middle;resizable=0;points=[];autosize=1;strokeColor=none;fillColor=none;" vertex="1" parent="1">
          <mxGeometry x="482.02" y="230" width="30" height="30" as="geometry" />
        </mxCell>
        <mxCell id="ot6ux1eSbc0KrhvYerLD-46" value="1" style="text;html=1;align=center;verticalAlign=middle;resizable=0;points=[];autosize=1;strokeColor=none;fillColor=none;" vertex="1" parent="1">
          <mxGeometry x="533.02" y="290" width="30" height="30" as="geometry" />
        </mxCell>
        <mxCell id="ot6ux1eSbc0KrhvYerLD-47" value="N" style="text;html=1;align=center;verticalAlign=middle;resizable=0;points=[];autosize=1;strokeColor=none;fillColor=none;" vertex="1" parent="1">
          <mxGeometry x="430" y="428" width="30" height="30" as="geometry" />
        </mxCell>
      </root>
    </mxGraphModel>
  </diagram>
</mxfile>
